<svg width="28" height="28" viewBox="0 0 28 28" fill="none" xmlns="http://www.w3.org/2000/svg">
<path d="M14 1.12C6.8932 1.12 1.12 6.8932 1.12 14C1.12 21.1068 6.8932 26.88 14 26.88C21.1068 26.88 26.88 21.1068 26.88 14C26.88 6.8932 21.1068 1.12 14 1.12ZM14 2.24C20.5015 2.24 25.76 7.49849 25.76 14C25.76 20.5015 20.5015 25.76 14 25.76C7.49849 25.76 2.24 20.5015 2.24 14C2.24 7.49849 7.49849 2.24 14 2.24ZM13.44 7.27999V13.44H7.27999V14.56H13.44V20.72H14.56V14.56H20.72V13.44H14.56V7.27999H13.44Z" fill="#838383"/>
</svg>
