<svg width="24" height="24" viewBox="0 0 24 24" fill="none" xmlns="http://www.w3.org/2000/svg">
<path d="M19.548 7.26707C19.7143 7.06378 19.839 6.82973 19.9148 6.57827C19.9907 6.32681 20.0163 6.06287 19.9902 5.80152C19.964 5.54017 19.8867 5.28653 19.7625 5.05507C19.6383 4.82362 19.4698 4.61889 19.2665 4.45257C19.0632 4.28625 18.8292 4.1616 18.5777 4.08574C18.3262 4.00987 18.0623 3.98428 17.8009 4.01042C17.5396 4.03656 17.286 4.11392 17.0545 4.23808C16.823 4.36225 16.6183 4.53078 16.452 4.73407L8.666 14.2501L6.2 12.4001C5.98988 12.2425 5.75079 12.1278 5.49636 12.0626C5.24194 11.9975 4.97716 11.983 4.71716 12.0202C4.45715 12.0573 4.20701 12.1453 3.98101 12.2791C3.75501 12.4129 3.55759 12.59 3.4 12.8001C3.24241 13.0102 3.12776 13.2493 3.06257 13.5037C2.99739 13.7581 2.98296 14.0229 3.0201 14.2829C3.09512 14.808 3.37565 15.2818 3.8 15.6001L7.033 18.0251C7.65195 18.4894 8.42636 18.6966 9.19448 18.6034C9.96259 18.5102 10.665 18.1239 11.155 17.5251L19.548 7.26707Z" stroke="#E3E5E5" stroke-width="2" stroke-linecap="round"/>
</svg>
