<svg width="17" height="17" viewBox="0 0 17 17" fill="none" xmlns="http://www.w3.org/2000/svg">
<path d="M8.50004 1.41669C8.40637 1.4167 8.31363 1.43529 8.22719 1.47139C8.14075 1.50748 8.06232 1.56037 7.99646 1.62697L0.852254 7.86086C0.807636 7.89378 0.771371 7.93672 0.746381 7.98623C0.72139 8.03573 0.708372 8.0904 0.708374 8.14585C0.708374 8.23978 0.745688 8.32987 0.812107 8.39629C0.878526 8.46271 0.96861 8.50002 1.06254 8.50002H2.83337V14.1667C2.83337 14.5577 3.15071 14.875 3.54171 14.875H6.37504C6.76604 14.875 7.08337 14.5577 7.08337 14.1667V9.91669H9.91671V14.1667C9.91671 14.5577 10.234 14.875 10.625 14.875H13.4584C13.8494 14.875 14.1667 14.5577 14.1667 14.1667V8.50002H15.9375C16.0315 8.50002 16.1216 8.46271 16.188 8.39629C16.2544 8.32987 16.2917 8.23978 16.2917 8.14585C16.2917 8.0904 16.2787 8.03573 16.2537 7.98623C16.2287 7.93672 16.1924 7.89378 16.1478 7.86086L9.00777 1.63112C9.00639 1.62973 9.00501 1.62835 9.00362 1.62697C8.93776 1.56037 8.85934 1.50748 8.7729 1.47139C8.68646 1.43529 8.59371 1.4167 8.50004 1.41669Z" fill="#48A7F8"/>
</svg>
