<svg width="20" height="20" viewBox="0 0 20 20" fill="none" xmlns="http://www.w3.org/2000/svg">
<path fill-rule="evenodd" clip-rule="evenodd" d="M9.99998 3.33333C8.68791 3.33333 7.42049 3.88124 6.47917 4.87145C5.53649 5.8631 4.99998 7.21668 4.99998 8.63636C4.99998 10.7033 6.28025 12.721 7.70254 14.3003C8.39906 15.0737 9.09808 15.7072 9.62364 16.1474C9.76282 16.264 9.88938 16.3666 9.99998 16.4544C10.1106 16.3666 10.2371 16.264 10.3763 16.1474C10.9019 15.7072 11.6009 15.0737 12.2974 14.3003C13.7197 12.721 15 10.7033 15 8.63636C15 7.21668 14.4635 5.8631 13.5208 4.87145C12.5795 3.88124 11.3121 3.33333 9.99998 3.33333ZM9.99998 17.5C9.5215 18.1823 9.52129 18.1821 9.52107 18.182L9.51897 18.1805L9.51432 18.1772L9.49879 18.1662C9.48571 18.1568 9.46725 18.1435 9.44375 18.1264C9.39677 18.0922 9.32963 18.0426 9.2452 17.9784C9.07643 17.8502 8.83812 17.6635 8.5534 17.425C7.98521 16.9491 7.2259 16.2615 6.46408 15.4156C4.96971 13.7563 3.33331 11.3421 3.33331 8.63636C3.33331 6.80112 4.02596 5.03308 5.27121 3.72314C6.51782 2.41178 8.21786 1.66667 9.99998 1.66667C11.7821 1.66667 13.4821 2.41178 14.7287 3.72314C15.974 5.03308 16.6666 6.80112 16.6666 8.63636C16.6666 11.3421 15.0302 13.7563 13.5359 15.4156C12.7741 16.2615 12.0148 16.9491 11.4466 17.425C11.1618 17.6635 10.9235 17.8502 10.7548 17.9784C10.6703 18.0426 10.6032 18.0922 10.5562 18.1264C10.5327 18.1435 10.5142 18.1568 10.5012 18.1662L10.4856 18.1772L10.481 18.1805L10.4795 18.1816C10.4792 18.1817 10.4785 18.1823 9.99998 17.5ZM9.99998 17.5L10.4785 18.1823C10.1913 18.3837 9.80826 18.3834 9.52107 18.182L9.99998 17.5Z" fill="#643FDB" fill-opacity="0.6"/>
<path fill-rule="evenodd" clip-rule="evenodd" d="M9.99996 6.66667C9.07948 6.66667 8.33329 7.41286 8.33329 8.33333C8.33329 9.25381 9.07948 10 9.99996 10C10.9204 10 11.6666 9.25381 11.6666 8.33333C11.6666 7.41286 10.9204 6.66667 9.99996 6.66667ZM6.66663 8.33333C6.66663 6.49238 8.15901 5 9.99996 5C11.8409 5 13.3333 6.49238 13.3333 8.33333C13.3333 10.1743 11.8409 11.6667 9.99996 11.6667C8.15901 11.6667 6.66663 10.1743 6.66663 8.33333Z" fill="#643FDB" fill-opacity="0.6"/>
</svg>
