<svg width="52" height="52" viewBox="0 0 52 52" fill="none" xmlns="http://www.w3.org/2000/svg">
<path d="M26 0C32.8956 0 39.5088 2.73928 44.3848 7.61522C49.2607 12.4912 52 19.1044 52 26C52 32.8956 49.2607 39.5088 44.3848 44.3848C39.5088 49.2607 32.8956 52 26 52C19.1044 52 12.4912 49.2607 7.61522 44.3848C2.73928 39.5088 0 32.8956 0 26C0 19.1044 2.73928 12.4912 7.61522 7.61522C12.4912 2.73928 19.1044 0 26 0ZM26 11.1429C25.5284 11.1425 25.062 11.2404 24.6304 11.4305C24.1988 11.6205 23.8116 11.8985 23.4936 12.2466C23.1755 12.5948 22.9335 13.0054 22.7831 13.4523C22.6327 13.8993 22.5771 14.3727 22.62 14.8423L23.9757 29.7217C24.0283 30.222 24.2642 30.685 24.638 31.0216C25.0118 31.3582 25.497 31.5445 26 31.5445C26.503 31.5445 26.9882 31.3582 27.362 31.0216C27.7358 30.685 27.9717 30.222 28.0243 29.7217L29.3763 14.8423C29.4191 14.373 29.3637 13.8999 29.2135 13.4532C29.0633 13.0065 28.8217 12.5961 28.504 12.248C28.1863 11.8999 27.7996 11.6219 27.3684 11.4316C26.9373 11.2413 26.4713 11.143 26 11.1429ZM26 40.8571C26.7881 40.8571 27.5439 40.5441 28.1011 39.9868C28.6584 39.4296 28.9714 38.6738 28.9714 37.8857C28.9714 37.0976 28.6584 36.3418 28.1011 35.7846C27.5439 35.2273 26.7881 34.9143 26 34.9143C25.2119 34.9143 24.4561 35.2273 23.8989 35.7846C23.3416 36.3418 23.0286 37.0976 23.0286 37.8857C23.0286 38.6738 23.3416 39.4296 23.8989 39.9868C24.4561 40.5441 25.2119 40.8571 26 40.8571Z" fill="#BBBBBB"/>
</svg>
